<?xml version="1.0" standalone="no"?>
<!DOCTYPE svg PUBLIC "-//W3C//DTD SVG 20010904//EN"
 "http://www.w3.org/TR/2001/REC-SVG-20010904/DTD/svg10.dtd">
<svg version="1.0" xmlns="http://www.w3.org/2000/svg"
 width="260.000000pt" height="260.000000pt" viewBox="0 0 260.000000 260.000000"
 preserveAspectRatio="xMidYMid meet">
<metadata>
Created by potrace 1.11, written by Peter Selinger 2001-2013
</metadata>
<g transform="translate(0.000000,260.000000) scale(0.100000,-0.100000)"
fill="#000000" stroke="none">
<path d="M0 1300 l0 -1300 1300 0 1300 0 0 1300 0 1300 -1300 0 -1300 0 0
-1300z m1465 1015 c384 -62 700 -337 818 -710 148 -470 -66 -986 -506 -1216
-570 -298 -1266 -8 -1460 606 -149 474 68 990 513 1219 201 103 414 137 635
101z"/>
<path d="M1120 2161 c-169 -36 -317 -117 -440 -241 -345 -345 -345 -895 0
-1240 125 -126 272 -205 445 -241 288 -60 585 30 795 241 345 345 345 895 0
1240 -211 212 -512 302 -800 241z"/>
</g>
</svg>
