<?xml version="1.0" standalone="no"?>
<!DOCTYPE svg PUBLIC "-//W3C//DTD SVG 20010904//EN"
 "http://www.w3.org/TR/2001/REC-SVG-20010904/DTD/svg10.dtd">
<svg version="1.0" xmlns="http://www.w3.org/2000/svg"
 width="260.000000pt" height="260.000000pt" viewBox="0 0 260.000000 260.000000"
 preserveAspectRatio="xMidYMid meet">
<metadata>
Created by potrace 1.11, written by Peter Selinger 2001-2013
</metadata>
<g transform="translate(0.000000,260.000000) scale(0.100000,-0.100000)"
fill="#000000" stroke="none">
<path d="M0 1300 l0 -1300 1300 0 1300 0 0 1300 0 1300 -1300 0 -1300 0 0
-1300z m1442 776 c325 -63 572 -309 634 -633 70 -368 -142 -747 -492 -879
-465 -175 -966 105 -1060 593 -70 368 142 747 492 879 139 53 287 66 426 40z"/>
<path d="M1219 1970 c-153 -20 -284 -85 -394 -195 -80 -80 -125 -151 -163
-257 -25 -67 -27 -86 -27 -218 0 -132 2 -151 27 -218 38 -106 83 -177 163
-257 114 -114 239 -174 402 -195 133 -17 291 17 413 87 79 46 193 159 238 235
62 105 85 189 90 323 4 138 -9 208 -63 320 -85 175 -241 305 -425 354 -90 24
-186 31 -261 21z"/>
</g>
</svg>
