<?xml version="1.0" standalone="no"?>
<!DOCTYPE svg PUBLIC "-//W3C//DTD SVG 20010904//EN"
 "http://www.w3.org/TR/2001/REC-SVG-20010904/DTD/svg10.dtd">
<svg version="1.0" xmlns="http://www.w3.org/2000/svg"
 width="260.000000pt" height="260.000000pt" viewBox="0 0 260.000000 260.000000"
 preserveAspectRatio="xMidYMid meet">
<metadata>
Created by potrace 1.11, written by Peter Selinger 2001-2013
</metadata>
<g transform="translate(0.000000,260.000000) scale(0.100000,-0.100000)"
fill="#000000" stroke="none">
<path d="M0 1300 l0 -1300 1300 0 1300 0 0 1300 0 1300 -1300 0 -1300 0 0
-1300z m1479 1114 c409 -72 751 -403 862 -831 41 -160 41 -396 -1 -556 -48
-189 -142 -362 -269 -499 -215 -230 -488 -350 -796 -350 -308 0 -581 120 -796
350 -403 432 -403 1122 0 1554 265 283 615 400 1000 332z"/>
<path d="M1085 2276 c-130 -30 -255 -86 -360 -161 -67 -47 -186 -168 -232
-236 -49 -72 -111 -202 -140 -296 -25 -83 -27 -100 -27 -278 0 -178 2 -195 27
-278 91 -296 299 -530 567 -640 136 -56 173 -62 355 -62 182 0 219 6 355 62
150 62 305 182 405 316 62 81 128 215 162 324 25 83 27 100 27 278 0 178 -2
195 -27 278 -104 337 -345 579 -677 680 -86 26 -345 33 -435 13z"/>
</g>
</svg>
